# xmcd
#
# Track frame offsets: 
#        150
#        19738
#        42194
#        62677
#        79987
#        94745
#        113605
#
# Disc length: 1738 seconds
#
# Revision: 0
# Processed by: cddbd v1.5.2PL0 Copyright (c) Steve Scherf et al.
# Submitted via: ExactAudioCopyFreeDBPlugin 1.0
#
DISCID=4e06c807
DTITLE=Таисия Повалий и Николай Басков - Отпусти меня
DYEAR=2004
DGENRE=Pop
TTITLE0=Отпусти меня
TTITLE1=Я буду руки твои целовать
TTITLE2=Ах, счастье
TTITLE3=Река судьбы
TTITLE4=Ти, моя Україна
TTITLE5=Ах, эта ночь
TTITLE6=Отпусти меня (Видеоклип)
EXTD=
EXTT0=
EXTT1=
EXTT2=
EXTT3=
EXTT4=
EXTT5=
EXTT6=
PLAYORDER=
